<svg width="514" height="334" viewBox="0 0 514 334" fill="none" xmlns="http://www.w3.org/2000/svg">
<path fill-rule="evenodd" clip-rule="evenodd" d="M1.90838 258.829L0.858106 259.899L1.5 260.529V263H3H126H127.5V260H126V245L126.036 245L126 242H123V242.036L45.9988 242.964L147 140.075V260.5V262H150H151.5H197.5H198H199H201V260.5V202.203L254.945 259.806L254.81 259.949L257 262L259.19 259.949L259.055 259.806L313 202.203V260.5V262H315H316H316.5H362.5H364H367V260.5V142.889L463.806 242H391H389.5H388V243.5V245V260L386.506 259.994L386.494 262.994L387.994 263L510.26 263.493L510.862 264.105L511.479 263.498L511.994 263.5L513.494 263.506L513.506 260.506L512.006 260.5L511.521 260.498L258.052 3.06887L257 2.00002L256.491 2.50101L254.858 0.899456L253.808 1.9704L1.90838 258.829ZM149.037 138H150V139.5V259H151.5H197.5H198V200.5V199L200.19 196.949L201.215 198.044L257 257.611L312.785 198.044L313.81 196.949L316 199V200.5V259H316.5H362.5H364V139.817L362.225 138H258.5H257H255.5H151.5H150V137.019L149.037 138ZM151.982 135H255.5H257H258.5H359.295L256.902 30.1693L255.898 29.1413L151.982 135ZM258 27L259.048 28.0731L363.488 135H364V135.524L366.419 138H367V138.595L466.952 240.927L468 242L467 242.977V245H465.5H391V260.012L507.294 260.481L255.915 5.17368L255.39 4.64123L4.96138 260H123V245.036L44.536 245.982L43.0361 246L43.0124 244.031L41.8591 242.898L42.9099 241.828L254.808 25.9688L255.859 24.8984L258 27ZM257 157H258.5H344V240.5V242V244H336V170.5V169H333V166H331.5H321.5H320V169L317.83 166.929L316.794 168.014L257 230.655L197.206 168.014L196.17 166.929L194 169V166H192.5H182.5H181V169H178V170.5V244H170V242V240.5V157H255.5H257ZM181 169H182.5H192.5H194L195.036 170.085L254.926 232.828L254.83 232.929L257 235L259.17 232.929L259.074 232.828L318.964 170.085L320 169H321.5H331.5H333V170.5V244V245.5V247H334.5H336H344H345.5H347V245.5V244V242V240.5V157V155.5V154H345.5H344H258.5H257H255.5H170H168.5H167V155.5V157V240.5V242V244V245.5V247H168.5H170H178H179.5H181V245.5V244V170.5V169ZM63.3521 277.455V332H89.0623C92.7555 332 95.9279 331.361 98.5794 330.082C101.231 328.804 103.267 327.064 104.687 324.862C106.108 322.661 106.818 320.163 106.818 317.369C106.818 314.505 106.191 312.09 104.936 310.125C103.681 308.136 102.095 306.574 100.177 305.438C98.2834 304.301 96.3303 303.591 94.318 303.307C97.3957 302.668 99.917 301.448 101.882 299.649C103.847 297.826 104.829 295.258 104.829 291.943C104.829 287.587 103.101 284.083 99.6447 281.432C96.1883 278.78 91.5244 277.455 85.6532 277.455H63.3521ZM89.0623 324.33H71.3066V307.568H89.0623C91.9506 307.568 94.2115 308.385 95.845 310.018C97.4785 311.628 98.2953 313.842 98.2953 316.659C98.2953 319.027 97.4785 320.897 95.845 322.27C94.2115 323.643 91.9506 324.33 89.0623 324.33ZM85.6532 300.324H71.3066V285.125H85.6532C89.015 285.125 91.6547 285.788 93.5723 287.114C95.4899 288.416 96.4487 290.215 96.4487 292.511C96.4487 294.121 96.0107 295.518 95.1348 296.702C94.2825 297.862 93.0514 298.761 91.4416 299.401C89.8317 300.016 87.9023 300.324 85.6532 300.324ZM128.773 329.656C132.584 331.976 137.118 333.136 142.374 333.136C146.067 333.136 149.393 332.568 152.352 331.432C155.312 330.272 157.798 328.662 159.81 326.602C161.822 324.519 163.254 322.104 164.107 319.358L156.01 317.085C155.3 318.979 154.294 320.565 152.992 321.844C151.69 323.098 150.139 324.045 148.34 324.685C146.564 325.3 144.575 325.608 142.374 325.608C138.988 325.608 136.017 324.874 133.46 323.406C130.904 321.915 128.903 319.749 127.459 316.908C126.171 314.31 125.467 311.197 125.347 307.568H164.959V304.017C164.959 298.927 164.284 294.642 162.935 291.162C161.585 287.682 159.774 284.888 157.502 282.781C155.229 280.651 152.708 279.112 149.938 278.165C147.168 277.218 144.362 276.744 141.521 276.744C136.597 276.744 132.289 277.952 128.595 280.366C124.926 282.758 122.061 286.096 120.002 290.381C117.966 294.642 116.948 299.566 116.948 305.153C116.948 310.741 117.966 315.641 120.002 319.855C122.061 324.045 124.985 327.312 128.773 329.656ZM125.368 300.324C125.528 297.794 126.166 295.403 127.281 293.151C128.584 290.523 130.442 288.392 132.857 286.759C135.295 285.101 138.183 284.273 141.521 284.273C144.552 284.273 147.18 284.971 149.405 286.368C151.654 287.765 153.382 289.67 154.59 292.085C155.821 294.5 156.436 297.246 156.436 300.324H125.368ZM186.656 329.514C190.35 331.929 194.753 333.136 199.867 333.136C203.891 333.136 207.419 332.391 210.449 330.899C213.503 329.384 215.953 327.348 217.8 324.791C219.67 322.211 220.842 319.311 221.316 316.091H212.935C212.414 318.08 211.538 319.784 210.307 321.205C209.076 322.625 207.573 323.714 205.797 324.472C204.021 325.229 202.045 325.608 199.867 325.608C196.552 325.608 193.664 324.744 191.202 323.016C188.763 321.287 186.869 318.861 185.52 315.736C184.194 312.611 183.531 308.941 183.531 304.727C183.531 300.608 184.206 297.021 185.556 293.967C186.929 290.89 188.834 288.51 191.273 286.83C193.735 285.125 196.6 284.273 199.867 284.273C203.56 284.273 206.495 285.243 208.673 287.185C210.875 289.102 212.296 291.304 212.935 293.79H221.316C220.842 290.381 219.623 287.398 217.658 284.841C215.693 282.284 213.172 280.295 210.094 278.875C207.016 277.455 203.56 276.744 199.725 276.744C194.8 276.744 190.492 277.952 186.798 280.366C183.129 282.758 180.264 286.084 178.205 290.345C176.169 294.583 175.151 299.472 175.151 305.011C175.151 310.456 176.145 315.298 178.134 319.536C180.122 323.773 182.963 327.099 186.656 329.514ZM268.084 308.705H241.948V332H233.567V277.455H241.948V300.892H268.084V277.455H276.465V332H268.084V308.705ZM326.429 277.455L300.151 319.642V277.455H291.77V332H301.571L327.708 289.812V332H336.088V277.455H326.429ZM385.955 308.705H359.819V332H351.438V277.455H359.819V300.892H385.955V277.455H394.336V332H385.955V308.705ZM416.282 331.325C419.099 332.627 422.236 333.278 425.692 333.278C428.865 333.278 431.552 332.805 433.753 331.858C435.955 330.911 437.719 329.763 439.045 328.413C440.37 327.064 441.317 325.797 441.885 324.614H442.312V332H450.692V296.062C450.692 291.73 449.982 288.274 448.562 285.693C447.141 283.113 445.354 281.183 443.199 279.905C441.069 278.626 438.855 277.786 436.559 277.384C434.286 276.957 432.274 276.744 430.522 276.744C427.776 276.744 424.982 277.123 422.141 277.881C419.324 278.615 416.72 279.917 414.329 281.787C411.961 283.634 410.067 286.214 408.647 289.528L416.601 292.369C417.525 290.381 419.123 288.51 421.395 286.759C423.668 285.007 426.805 284.131 430.806 284.131C434.665 284.131 437.541 285.101 439.435 287.043C441.353 288.984 442.312 291.706 442.312 295.21V295.494C442.312 296.844 441.826 297.791 440.856 298.335C439.909 298.88 438.394 299.27 436.31 299.507C434.251 299.72 431.564 300.04 428.249 300.466C425.716 300.797 423.195 301.247 420.685 301.815C418.199 302.36 415.927 303.188 413.867 304.301C411.807 305.414 410.162 306.953 408.931 308.918C407.7 310.859 407.084 313.392 407.084 316.517C407.084 320.068 407.913 323.098 409.57 325.608C411.227 328.094 413.465 330 416.282 331.325ZM435.351 323.797C433.079 325.099 430.285 325.75 426.971 325.75C423.633 325.75 420.875 325.016 418.697 323.548C416.542 322.057 415.465 319.855 415.465 316.943C415.465 314.812 416.033 313.132 417.17 311.901C418.33 310.646 419.845 309.711 421.715 309.095C423.609 308.456 425.645 307.994 427.823 307.71C428.723 307.592 429.894 307.45 431.339 307.284C432.806 307.095 434.31 306.882 435.849 306.645C437.411 306.384 438.784 306.089 439.968 305.757C441.175 305.402 441.957 305.011 442.312 304.585V312.256C442.312 314.528 441.72 316.695 440.536 318.754C439.376 320.814 437.648 322.495 435.351 323.797Z" fill="#2C820E"/>
</svg>
